<?xml version="1.0" standalone="no"?><!-- Generator: Gravit.io --><svg xmlns="http://www.w3.org/2000/svg" xmlns:xlink="http://www.w3.org/1999/xlink" style="isolation:isolate" viewBox="0 0 512 512" width="512" height="512"><defs><clipPath id="_clipPath_SHipkaC1qUOzrmuU4zFUnx6d03CQSjah"><rect width="512" height="512"/></clipPath></defs><g clip-path="url(#_clipPath_SHipkaC1qUOzrmuU4zFUnx6d03CQSjah)"><g id="Group"><path d=" M 418.487 340.645 L 418.487 494.092 L 418.487 494.6 L 512 494.6 L 512 394.697 L 418.487 340.645 Z " fill="rgb(29,33,38)"/><path d=" M 0 494.6 L 93.513 494.6 L 93.513 494.092 L 93.513 340.526 L 0 394.697 L 0 494.6 Z " fill="rgb(29,33,38)"/><path d=" M 110.029 288.304 L 110.029 494.092 L 205.9 494.092 L 205.9 406.845 C 205.9 379.481 228.084 357.297 255.448 357.297 L 256.552 357.297 C 283.916 357.297 306.1 379.481 306.1 406.845 L 306.1 494.092 L 401.971 494.092 L 401.971 288.304 L 256 167.221 L 110.029 288.304 Z " fill="rgb(29,33,38)"/><path d=" M 45.423 266.879 L 70.19 296.935 L 256 143.827 L 441.81 296.935 L 466.577 266.879 L 267.561 102.891 L 267.561 66.398 L 303.287 66.398 L 303.287 43.276 L 267.561 43.276 L 267.561 17.4 L 244.439 17.4 L 244.439 43.276 L 208.713 43.276 L 208.713 66.398 L 244.439 66.398 L 244.439 102.891 L 45.423 266.879 Z " fill="rgb(29,33,38)"/></g></g></svg>