<svg xmlns="http://www.w3.org/2000/svg" xmlns:xlink="http://www.w3.org/1999/xlink" version="1.1" x="0px" y="0px" viewBox="0 0 100 100" enable-background="new 0 0 100 100" xml:space="preserve"><path d="M50,5C25.2,5,5,25.1,5,50c0,24.9,20.2,45,45,45c24.9,0,45-20.1,45-45C95,25.1,74.9,5,50,5L50,5z M50,58.3  c-1.3,0-2.3,1-2.3,2.3V61c0,1.4,1,2.3,2.3,2.3c1.3,0,2.3-1,2.3-2.3v-0.4C52.3,59.3,51.3,58.3,50,58.3L50,58.3z M50,36.6  c-1.9,0-3.5,1.8-3.3,3.7l1.1,13.9c0.1,1.2,1,2.1,2.1,2.2c1.3,0.1,2.4-0.9,2.5-2.2l1.1-13.9C53.6,38.4,52,36.6,50,36.6L50,36.6z   M75.1,29.5c1.4,0,2.5,1.2,2.5,2.6v35.9c0,1.5-1.1,2.5-2.5,2.5H55.7l-4.8,6.8c-0.2,0.3-0.5,0.5-0.9,0.5c-0.4,0-0.7-0.3-0.9-0.5  l-4.6-6.8H25.1c-1.5,0-2.6-1-2.6-2.5V32.1c0-1.4,1.1-2.6,2.6-2.6H75.1z"></path></svg>