<?xml version="1.0" standalone="no"?><!-- Generator: Gravit.io --><svg xmlns="http://www.w3.org/2000/svg" xmlns:xlink="http://www.w3.org/1999/xlink" style="isolation:isolate" viewBox="0 0 512 512" width="512" height="512"><defs><clipPath id="_clipPath_Q4Xo2nHRxVJCAxWOsUENjD67NUZC57Vo"><rect width="512" height="512"/></clipPath></defs><g clip-path="url(#_clipPath_Q4Xo2nHRxVJCAxWOsUENjD67NUZC57Vo)"><g id="Group"><g id="Group"><g id="Group"><path d=" M 412.497 360.006 C 408.715 350.957 399.609 345.163 390.921 341.6 L 332.19 314.557 L 303.972 290.76 L 258.633 335.855 L 258.598 335.855 L 278.166 466.657 C 278.236 467.106 278.12 467.565 277.853 467.931 L 257.395 495.929 C 257.069 496.38 256.551 496.641 255.997 496.641 C 255.444 496.641 254.925 496.377 254.6 495.929 L 234.143 467.931 C 233.873 467.565 233.76 467.102 233.828 466.657 L 253.394 335.853 L 253.364 335.853 L 208.027 290.76 L 179.809 314.557 L 121.074 341.6 C 112.384 345.163 103.845 350.574 99.5 360.006 C 99.5 360.006 35.658 511.999 70.286 511.999 L 441.719 511.999 C 476.341 512.002 412.497 360.006 412.497 360.006 Z " fill="rgb(29,33,38)"/><path d=" M 416.577 151.607 C 417.461 151.511 418.256 151.089 418.804 150.405 C 419.359 149.723 419.609 148.843 419.511 147.968 C 418.854 142.354 418.193 136.752 417.542 131.138 L 416.173 119.39 C 415.964 117.636 414.395 116.361 412.629 116.519 L 410.089 116.522 L 410.137 77.087 L 411.466 76.604 L 415.9 75.004 C 419.654 73.646 422.154 70.086 422.154 66.098 C 422.154 62.109 419.654 58.548 415.9 57.189 L 259.216 0.565 C 257.133 -0.188 254.854 -0.188 252.776 0.565 L 96.09 57.189 C 92.338 58.548 89.838 62.109 89.838 66.098 C 89.838 70.086 92.338 73.646 96.09 75.004 L 154.012 95.937 C 149.923 108.844 148.062 123.624 148.23 140.078 C 149.249 233.934 203.733 289.903 254.147 289.903 C 303.971 289.903 359.045 233.934 360.06 140.078 C 360.228 124.13 358.47 109.764 354.644 97.143 L 396.761 81.923 L 396.85 116.537 L 394.305 116.536 C 392.538 116.382 390.967 117.652 390.766 119.42 L 387.471 148 C 387.372 148.871 387.629 149.741 388.18 150.426 C 388.733 151.108 389.536 151.545 390.408 151.617 M 254.153 267.111 C 210.169 267.111 179.818 215.586 173.696 164.078 C 168.035 116.443 236.924 114.225 240.925 143.75 C 242.158 152.827 231.736 162.55 232.918 166.298 C 238.747 184.803 335.272 105.901 334.612 164.055 C 334.147 205.114 296.062 267.111 254.153 267.111 Z " fill="rgb(29,33,38)"/></g></g></g></g></svg>